<?xml version="1.0" standalone="no"?>
<!DOCTYPE svg PUBLIC "-//W3C//DTD SVG 20010904//EN"
 "http://www.w3.org/TR/2001/REC-SVG-20010904/DTD/svg10.dtd">
<svg version="1.0" xmlns="http://www.w3.org/2000/svg"
 width="1280.000000pt" height="656.000000pt" viewBox="0 0 1280.000000 656.000000"
 preserveAspectRatio="xMidYMid meet">

<g transform="translate(0.000000,656.000000) scale(0.100000,-0.100000)"
fill="#000000" stroke="none">
<path d="M5006 6473 c-4 -38 -10 -95 -13 -127 l-6 -60 38 38 c21 21 53 44 71
52 44 18 148 18 163 0 8 -10 11 -154 9 -537 -3 -476 -5 -527 -20 -558 -10 -19
-18 -36 -18 -38 0 -1 90 -3 200 -3 l199 0 -22 38 c-22 37 -22 41 -25 555 -2
353 1 523 8 537 9 17 21 20 75 20 80 0 103 -9 161 -62 l47 -43 -6 55 c-4 30
-9 88 -13 128 l-7 72 -417 0 -418 0 -6 -67z"/>
<path d="M5943 6503 l22 -38 0 -575 0 -575 -22 -37 -22 -38 205 0 205 0 -23
31 c-22 30 -23 38 -26 300 l-3 269 90 0 91 0 0 -232 c-1 -246 -8 -309 -42
-345 l-21 -23 212 0 212 0 -23 31 -23 31 -3 574 c-3 600 -4 580 36 657 2 4
-86 7 -196 7 l-199 0 21 -42 c19 -40 21 -59 21 -258 l0 -215 -88 -3 -88 -3 3
229 c3 197 5 232 21 255 9 14 17 29 17 32 0 3 -90 5 -200 5 l-199 0 22 -37z"/>
<path d="M6944 6498 c20 -42 21 -56 24 -568 2 -289 0 -549 -3 -578 -4 -35 -15
-62 -32 -82 l-25 -30 336 0 336 0 5 23 c8 36 45 219 45 225 0 3 -10 -4 -22
-16 -48 -44 -176 -82 -280 -82 l-48 0 0 225 0 225 93 0 c80 0 98 -4 136 -25
23 -14 45 -25 47 -25 2 0 4 61 4 135 0 74 -2 135 -3 135 -2 0 -19 -8 -37 -17
-23 -11 -69 -18 -137 -21 l-103 -5 0 187 0 186 104 0 c102 0 105 -1 155 -34
57 -39 53 -42 71 64 6 36 13 77 16 93 l6 27 -355 0 -354 0 21 -42z"/>
<path d="M10 6424 c0 -3 19 -28 43 -55 98 -112 151 -236 168 -387 6 -65 9
-839 7 -2322 -3 -2086 -5 -2229 -21 -2290 -25 -91 -77 -193 -142 -277 -30 -40
-55 -75 -55 -78 0 -4 352 -4 783 -2 864 4 852 3 1039 70 297 106 502 335 617
687 113 346 144 900 70 1259 -76 368 -271 681 -535 857 l-83 55 74 50 c223
150 373 443 431 845 23 159 23 502 1 669 -79 585 -335 868 -826 915 -112 11
-1571 14 -1571 4z m1393 -384 c109 -41 200 -164 241 -327 68 -266 74 -829 12
-1136 -64 -313 -219 -443 -490 -410 -95 12 -150 35 -180 76 -21 28 -21 36 -21
857 l0 828 31 39 c60 74 145 105 269 99 48 -3 104 -13 138 -26z m25 -2422 c35
-13 76 -41 118 -81 108 -100 174 -256 221 -522 25 -143 26 -840 0 -1020 -51
-366 -153 -518 -365 -544 -180 -22 -352 45 -415 163 l-22 41 0 946 c0 914 1
948 19 968 28 30 116 60 209 70 100 10 165 4 235 -21z"/>
<path d="M11600 4375 c-281 -58 -532 -246 -655 -490 -63 -125 -86 -222 -86
-367 0 -298 101 -532 323 -744 111 -105 204 -167 421 -281 228 -119 328 -185
403 -265 102 -109 148 -232 147 -393 -1 -105 -13 -167 -51 -243 -93 -191 -323
-273 -578 -206 -295 77 -435 403 -293 686 16 31 33 59 39 63 5 3 10 10 10 16
0 15 -126 -37 -185 -77 -147 -97 -234 -273 -235 -471 0 -100 15 -164 62 -262
32 -66 56 -100 112 -155 86 -84 155 -127 276 -172 121 -46 236 -64 404 -64
232 0 406 39 580 128 254 131 421 352 483 642 22 104 24 354 4 445 -59 264
-206 459 -481 637 -47 31 -170 102 -274 158 -401 216 -531 315 -595 450 -23
49 -26 67 -26 166 0 107 1 112 38 186 99 202 306 290 570 243 154 -27 281
-115 342 -235 27 -54 27 -54 40 -29 41 79 247 530 244 534 -2 2 -55 -1 -118
-8 -150 -14 -235 -2 -385 57 -63 25 -140 49 -172 55 -78 15 -284 12 -364 -4z"/>
<path d="M2586 4318 c35 -43 62 -106 80 -191 22 -106 21 -2822 -2 -2917 -16
-69 -48 -133 -83 -164 -12 -11 -21 -23 -21 -28 0 -4 317 -8 705 -8 l704 0 6
33 c9 53 95 599 95 604 0 3 -26 -19 -58 -48 -66 -62 -150 -109 -254 -145 -118
-40 -337 -72 -398 -59 l-30 7 0 604 0 604 185 0 c208 0 237 -7 345 -80 33 -22
61 -40 64 -40 4 0 6 142 6 315 0 173 -3 315 -6 315 -3 0 -23 -14 -44 -30 -86
-68 -114 -75 -342 -78 l-208 -3 0 475 0 476 208 0 c248 0 252 -2 371 -115 l80
-77 5 34 c4 18 20 134 36 258 16 124 32 240 35 258 l6 32 -756 0 -757 0 28
-32z"/>
<path d="M4690 4345 c0 -2 18 -32 40 -66 46 -72 70 -143 70 -208 0 -66 -591
-2717 -629 -2819 -32 -89 -77 -170 -119 -214 l-26 -28 388 0 388 0 -37 41
c-58 64 -78 120 -82 224 -3 80 2 114 44 295 l48 205 312 3 312 2 10 -37 c66
-255 85 -353 84 -433 -1 -106 -26 -199 -70 -257 l-33 -43 435 0 c239 0 435 3
435 6 0 3 -18 26 -39 50 -50 58 -111 161 -146 249 -15 38 -52 182 -82 320
-312 1441 -513 2392 -513 2432 0 69 23 139 70 212 22 34 40 64 40 66 0 3 -202
5 -450 5 -247 0 -450 -2 -450 -5z m523 -1672 c59 -274 107 -504 107 -510 0
-10 -53 -13 -231 -13 -181 0 -230 3 -227 13 3 6 56 236 119 510 62 273 116
497 119 497 3 0 54 -224 113 -497z"/>
<path d="M5885 4338 c-2 -7 -24 -143 -50 -303 -25 -159 -48 -303 -51 -320 -6
-30 -6 -29 23 10 46 63 156 159 225 196 61 33 67 34 193 37 118 4 132 2 148
-15 30 -34 37 -114 32 -396 -3 -150 -10 -789 -16 -1422 -6 -632 -14 -1276 -19
-1430 -7 -260 -10 -286 -34 -370 -30 -101 -85 -223 -122 -272 l-25 -33 571 0
572 0 -21 32 c-36 55 -67 119 -95 198 -54 149 -56 176 -66 775 -16 982 -32
2805 -25 2843 4 20 13 49 21 64 l15 28 123 0 c121 0 125 -1 192 -34 84 -42
190 -128 235 -190 36 -51 39 -53 33 -28 -2 9 -24 145 -49 302 -25 157 -48 297
-51 313 l-6 27 -874 0 c-691 0 -875 -3 -879 -12z"/>
<path d="M7796 4293 c43 -72 61 -133 75 -248 7 -59 9 -545 7 -1430 -3 -1267
-5 -1344 -22 -1405 -23 -80 -50 -137 -84 -173 l-26 -27 702 0 c386 0 702 3
702 6 0 7 105 576 115 625 5 22 -2 18 -53 -32 -71 -69 -205 -137 -329 -169
-104 -26 -278 -45 -326 -36 l-37 7 0 1257 c0 772 4 1298 10 1364 12 127 39
220 80 276 l30 42 -439 0 -440 0 35 -57z"/>
<path d="M9283 4332 c33 -36 77 -150 92 -238 14 -80 15 -257 12 -1465 -2
-1213 -4 -1380 -18 -1424 -20 -64 -44 -110 -81 -158 l-30 -37 706 0 706 0 5
23 c7 30 95 595 95 609 0 6 -27 -15 -60 -46 -104 -99 -285 -170 -505 -196 -49
-6 -109 -9 -132 -5 l-43 6 0 605 0 604 185 0 c209 0 241 -7 350 -80 l60 -40 3
161 c1 88 1 230 0 316 l-3 156 -32 -27 c-17 -14 -58 -39 -90 -54 -56 -26 -64
-27 -265 -30 l-208 -3 0 475 0 476 208 0 c203 0 209 -1 259 -26 29 -14 83 -57
122 -96 65 -65 70 -69 75 -47 8 36 76 519 76 540 0 18 -27 19 -752 19 -717 0
-750 -1 -735 -18z"/>
</g>
</svg>
